<svg width="562" height="454" viewBox="0 0 562 454" fill="none" xmlns="http://www.w3.org/2000/svg">
<path d="M561.79 24.7V396.6C553.79 416.67 546.41 421.6 524.58 421.6H431.38C431.38 408.8 432.21 396.85 431.12 385.07C430.24 375.55 435.42 370.82 441.75 365.69C452.14 376.1 462.41 386.24 472.49 396.57C476.28 400.46 480.44 402.7 485.67 400.43C490.72 398.24 491.67 393.72 491.67 388.57C491.56 359.68 491.19 330.79 491.77 301.92C492.17 281.92 488.49 261.53 495.88 241.86C497.27 238.16 498.46 235.86 502.59 235.29C519.46 232.95 528.68 219.4 524.59 202.92C523.59 198.76 524.38 196.13 528.22 193.84C542.91 185.08 546.09 169.17 535.87 155.45C533.2 151.86 533.36 149.22 535.96 145.73C546.12 132.1 542.87 116.27 528.1 107.36C524.51 105.2 523.55 102.78 524.51 98.77C528.57 81.88 519.92 68.77 502.96 66.1C498.78 65.44 496.55 63.71 495.96 59.22C493.87 42.82 479.87 33.22 463.96 37.34C459.55 38.47 456.86 37.64 454.45 33.59C445.93 19.24 429.64 16.02 416.45 25.99C413 28.59 410.3 28.85 406.7 26.19C392.9 16 376.94 19.19 368.27 33.78C365.98 37.65 363.38 38.48 359.22 37.45C342.85 33.45 329.39 42.32 326.92 58.89C326.24 63.43 324.18 65.5 319.64 66.17C303.11 68.62 294.19 82.12 298.23 98.49C299.23 102.67 298.35 105.25 294.51 107.49C280.08 116.05 276.75 132.21 286.67 145.49C289.41 149.16 289.58 151.95 286.75 155.7C276.75 168.9 280.03 185.15 294.4 193.7C298.45 196.11 299.24 198.83 298.12 203.23C294.06 219.15 303.65 232.91 320.04 235.39C322.04 235.69 325.04 236.73 325.51 238.13C327.82 244.94 330.99 251.97 331.05 258.95C331.51 311.05 331.3 363.16 331.3 415.26V421.26C329.3 421.41 328.02 421.58 326.78 421.58C228.42 421.58 130.063 421.58 31.71 421.58C12.82 421.58 0.22998 408.58 0.22998 389.64C0.22998 270.44 0.22998 151.24 0.22998 32.04C0.22998 12.99 12.78 0.38001 31.8 0.38001C197.987 0.38001 364.17 0.38001 530.35 0.38001C533.449 0.340931 536.541 0.676701 539.56 1.38001C551.71 4.47001 558.04 13.38 561.79 24.7ZM40.27 210.08C40.27 242.43 40.27 274.79 40.27 307.14C40.1555 311.889 40.5274 316.637 41.38 321.31C46.47 345.31 66.33 361.31 91.44 361.36C153.77 361.5 216.1 361.36 278.44 361.36C279.72 361.408 281.001 361.344 282.27 361.17C284.74 360.839 286.995 359.591 288.587 357.673C290.179 355.755 290.99 353.309 290.86 350.82C290.63 345.59 286.86 341.87 281.29 341.46C279.29 341.31 277.29 341.39 275.29 341.39C214.783 341.39 154.28 341.39 93.78 341.39C72.53 341.39 60.39 329.19 60.38 308.11C60.38 243.4 60.74 178.69 60.15 113.99C59.97 94.5 74.08 80.14 94.04 80.36C151.61 81.02 209.2 80.61 266.78 80.55C269.487 80.66 272.193 80.3049 274.78 79.5C279.21 77.86 281.3 74.14 280.78 69.5C280.23 64.67 277.38 61.5 272.38 60.77C270.747 60.5879 269.102 60.5244 267.46 60.58C209.147 60.58 150.837 60.58 92.53 60.58C88.5088 60.4848 84.4884 60.7964 80.53 61.51C56.12 66.57 40.43 86.37 40.31 112.51C40.16 145.01 40.28 177.54 40.27 210.08ZM181.67 304.96C197.6 312.96 233.48 319.54 249.29 318.71C256.23 318.35 260.72 314.79 260.93 308.93C261.14 303.07 256.68 298.82 249.85 298.82C232.5 298.88 215.85 295.08 199.23 290.52C194.08 289.1 189.95 286.71 187.56 281.52C185.5 277.05 181.49 275.13 176.66 276.19C172.17 277.19 169.49 280.19 168.83 284.94C167.83 291.85 165.42 292.94 159.41 289.08C151.78 284.2 146.69 277.31 142.98 269.08C141.68 266.2 139.07 263.08 136.27 261.86C129.74 259.03 123.34 264.06 123.17 271.95C122.95 282.21 118.37 289.78 109.83 295.01C105.65 297.57 101.17 299.65 96.83 301.87C91.28 304.67 89.06 309.73 91.19 314.96C93.32 320.19 98.67 322.49 104.39 320.31C108.8 318.63 113.39 316.87 117.16 314.14C124.27 309.01 130.86 303.14 137.81 297.49C156.56 313.61 166.54 315.41 181.68 304.97L181.67 304.96ZM170.66 140.82H215.03C223.43 140.82 231.83 140.99 240.23 140.74C246.64 140.55 250.9 136.15 250.79 130.49C250.68 125 246.67 121.17 240.39 120.62C239.12 120.51 237.84 120.55 236.56 120.55C192.56 120.55 148.56 120.55 104.56 120.55C102.372 120.49 100.185 120.678 98.04 121.11C93.13 122.26 90.54 125.78 90.47 130.59C90.41 135.16 92.77 138.7 97.38 140.01C99.6679 140.581 102.023 140.84 104.38 140.78C126.473 140.807 148.567 140.82 170.66 140.82ZM170.57 180.71H225.9C231.01 180.71 236.13 180.85 241.24 180.62C243.739 180.607 246.135 179.618 247.916 177.864C249.696 176.11 250.72 173.729 250.77 171.23C250.884 168.641 249.989 166.109 248.273 164.167C246.557 162.225 244.154 161.025 241.57 160.82C240.296 160.726 239.017 160.703 237.74 160.75H103.53C101.89 160.75 99.82 160.26 98.69 161.04C95.87 163.04 92.28 165.16 91.27 168.04C90.34 170.67 91.44 175.22 93.38 177.32C95.32 179.42 99.45 180.52 102.64 180.55C125.28 180.82 147.92 180.68 170.57 180.68V180.71ZM170.09 221.02H230.38C234.03 221.02 237.7 221.21 241.33 220.9C243.919 220.771 246.356 219.641 248.129 217.749C249.901 215.858 250.87 213.352 250.83 210.76C250.75 205.39 246.83 201.47 241 201.05C239.91 200.97 238.81 201 237.72 201H103.47C102.011 200.961 100.552 201.014 99.1 201.16C94.1 201.81 91.17 204.94 90.55 209.74C90.1419 211.932 90.5571 214.197 91.716 216.101C92.8749 218.006 94.6959 219.415 96.83 220.06C99.095 220.757 101.462 221.065 103.83 220.97C125.9 221.01 147.99 220.99 170.08 220.99L170.09 221.02Z" fill="white"/>
<path d="M361.68 243C359.76 243.4 356.89 243.9 354.07 244.62C349.8 245.72 347.47 244.14 346.6 239.87C343.31 223.78 338.19 218.7 322.16 215.52C317.84 214.66 316.53 212.04 317.36 207.91C320.48 192.42 317.61 185.54 304.23 176.5C300.63 174.07 299.74 171.05 302.64 167.79C306.748 163.05 309.01 156.988 309.01 150.715C309.01 144.442 306.748 138.38 302.64 133.64C299.7 130.37 300.51 127.07 304.23 124.95C316.75 117.81 320.98 107.36 317.4 93.5C316.27 89.13 318 86.68 322.69 85.88C337.41 83.36 343.96 76.71 346.6 62.13C347.51 57.13 349.6 55.77 354.69 56.95C368.3 60.1 377.88 56.22 385.08 44.62C388.21 39.62 390.31 39.18 395.2 42.71C406.04 50.53 416.61 50.53 427.55 42.71C432.47 39.19 434.61 39.59 437.7 44.62C444.7 55.99 454.79 60.23 467.55 57.17C473.61 55.72 475.37 56.94 476.3 63.17C478.07 75.17 485.89 83.29 497.86 85.58C505.86 87.1 506.45 88.01 504.68 95.58C502.02 107.01 506.45 117.58 516.54 123.79C522.73 127.61 523.05 129.36 518.67 135.4C511.79 144.9 511.83 156.4 518.77 166C523.06 172 522.72 173.67 516.42 177.55C506.48 183.66 502.04 194.39 504.71 205.84C506.41 213.14 505.47 214.57 498.29 215.64C492.723 216.399 487.557 218.961 483.584 222.934C479.611 226.908 477.049 232.073 476.29 237.64C475.29 244.56 473.69 245.64 466.91 244.03C454.91 241.17 444.32 245.62 437.91 256.24C434.53 261.81 432.48 262.24 427.06 258.24C416.99 250.92 405.58 250.94 395.57 258.3C390.27 262.2 388.13 261.8 384.75 256.14C379.73 247.82 372.29 243.67 361.68 243ZM411.52 70.58C395.661 70.5543 380.151 75.2319 366.951 84.0213C353.751 92.8106 343.454 105.317 337.362 119.959C331.27 134.6 329.657 150.72 332.726 166.278C335.795 181.837 343.41 196.136 354.606 207.367C365.802 218.598 380.077 226.257 395.626 229.375C411.175 232.493 427.3 230.93 441.96 224.883C456.621 218.837 469.159 208.579 477.99 195.406C486.82 182.234 491.546 166.739 491.57 150.88C491.635 140.338 489.61 129.887 485.613 120.132C481.616 110.377 475.726 101.51 468.284 94.0435C460.841 86.5773 451.992 80.6597 442.249 76.6324C432.506 72.6052 422.062 70.5481 411.52 70.58Z" fill="white"/>
<path d="M351.16 266.18C360.73 261.47 366.31 264.09 372.05 272.36C375.7 277.61 383.91 279.69 390.05 283.19L391.38 281.82C391.38 283.993 391.38 286.163 391.38 288.33C391.38 322.13 391.38 355.93 391.38 389.73C391.38 394.24 392.46 398.15 396.84 400.22C401.22 402.29 405.35 401.45 408.9 398.06C409.693 397.433 410.521 396.852 411.38 396.32C411.38 404.67 411.38 412.22 411.38 419.78C411.38 427.34 411.38 434.78 411.38 442.25C411.38 447.06 409.48 450.76 404.81 452.61C400.3 454.4 396.63 452.82 393.42 449.61L390.7 446.9C383.43 439.71 379.02 439.73 371.7 446.98C370.338 448.459 368.882 449.849 367.34 451.14C365.943 452.258 364.269 452.977 362.497 453.223C360.724 453.468 358.918 453.231 357.27 452.536C355.621 451.84 354.19 450.713 353.129 449.272C352.068 447.831 351.415 446.131 351.24 444.35C351.143 443.26 351.116 442.164 351.16 441.07C351.16 383.883 351.16 326.697 351.16 269.51V266.18Z" fill="white"/>
<path d="M470.2 366.43C465.3 361.35 460.31 356.35 455.52 351.17C443.2 337.84 439.52 338.01 427.15 351.37C422.46 356.45 417.58 361.37 411.83 367.37V272.71C413.91 274.02 415.7 275.02 417.37 276.2C429.63 284.83 446.1 281.86 453.61 269.04C456.61 264.04 459.61 262.21 465.1 264.3C466.93 265 469.03 264.98 471.31 265.3V365.5L470.2 366.43Z" fill="white"/>
<path d="M411.45 90.54C427.355 90.603 442.592 96.9408 453.849 108.176C465.107 119.411 471.475 134.636 471.57 150.54C471.75 183.54 444.29 211.06 411.22 210.94C395.254 210.908 379.955 204.535 368.687 193.223C357.42 181.911 351.108 166.586 351.14 150.62C351.172 134.654 357.545 119.355 368.857 108.087C380.169 96.8202 395.494 90.5082 411.46 90.54H411.45Z" fill="white"/>
</svg>
