<svg width="496" height="496" viewBox="0 0 496 496" fill="none" xmlns="http://www.w3.org/2000/svg">
<g clip-path="url(#clip0_2019_7306)">
<path d="M312.404 496C310.573 495.594 308.714 495.323 306.843 495.192C264.772 495.145 222.705 495.145 180.642 495.192C172.934 495.192 171.736 493.944 171.836 486.158C172.016 472.783 172.435 459.407 172.345 446.032C172.185 423.912 182.089 407.562 200.189 395.564C228.742 376.599 267.648 376.509 296.031 395.454C313.502 407.113 322.757 423.343 322.747 444.564C322.747 458.539 322.647 472.603 322.806 486.627C322.806 490.71 321.638 493.834 318.204 496.04L312.404 496Z" fill="white"/>
<path d="M485.527 496C483.511 495.593 481.47 495.323 479.417 495.191C437.387 495.145 395.36 495.145 353.336 495.191C345.349 495.191 344.201 494.034 344.351 485.879C344.55 472.353 345.199 458.828 345.04 445.313C344.81 425.35 353.296 410.058 368.92 398.219C399.16 375.311 444.415 375.78 473.637 399.387C487.903 410.916 495.321 425.759 495.241 444.245C495.181 457.93 495.082 471.615 495.321 485.3C495.391 489.582 494.582 493.155 491.328 496.04L485.527 496Z" fill="white"/>
<path d="M0.0500488 461.184C0.319603 456.702 0.968521 452.2 0.788818 447.749C-0.209532 422.175 12.18 404.668 33.5846 392.45C63.7547 375.212 103.469 378.146 129.796 399.657C143.693 411.016 151.04 425.609 150.981 443.746C150.981 457.72 150.831 471.774 151.06 485.779C151.13 489.941 150.152 493.275 147.067 496H141.267C139.261 495.594 137.229 495.323 135.187 495.192C92.9165 495.145 50.653 495.145 8.39624 495.192C4.74228 495.192 1.81713 494.623 0.0799981 491.139L0.0500488 461.184Z" fill="white"/>
<path d="M456.396 193.944H228.433L220.206 178.183L269.904 104.778L259.621 97.4911L209.254 171.755C198.672 165.926 188.289 160.426 178.216 154.467C176.528 153.468 175.111 150.474 175.101 148.408C174.974 99.5839 174.974 50.7569 175.101 1.92645C175.101 1.7867 175.22 1.64696 175.44 1.20776H456.396V193.944ZM415.583 29.9251V171.875H427.803V29.9251H415.583ZM304.696 88.1283V171.525H316.856V88.1283H304.696ZM370.737 93.8179V172.254H382.987V93.8179H370.737ZM337.792 118.552V124.062C337.792 136.473 337.792 148.883 337.792 161.294C337.792 172.354 337.792 172.364 348.843 171.805C349.371 171.696 349.884 171.525 350.371 171.296V118.552H337.792Z" fill="white"/>
<path d="M136.504 254.613H55.9574V249.113C55.9574 223.826 55.9574 198.539 55.9574 173.252C55.9574 171.805 56.3767 170.078 55.7378 168.98C54.8991 167.533 53.2219 165.666 51.8841 165.656C50.5464 165.646 48.9789 167.592 48.1703 169.06C47.5513 170.188 47.9407 171.895 47.9407 173.342C47.9407 189.932 48.0205 206.531 47.8907 223.121C47.8308 231.385 41.3516 236.606 33.9139 234.759C28.7524 233.482 25.6076 228.92 25.5477 222.132C25.4578 210.055 25.358 197.967 25.5477 185.889C25.6365 179.614 26.1367 173.352 27.0452 167.143C29.3066 152.942 34.7017 139.423 42.8391 127.566C49.1287 118.163 58.6829 114.59 69.4551 114.38C87.4953 114.061 105.555 113.851 123.586 114.38C135.057 114.7 143.553 121.238 149.543 130.71C156.042 140.991 162.062 151.572 168.382 161.963C169.095 162.811 170.007 163.469 171.037 163.879C183.387 170.457 195.726 177.095 208.146 183.543C216.552 187.905 219.707 196.45 215.633 204.505C211.221 213.279 201.657 216.483 193.26 211.961C178.285 203.816 163.31 195.551 148.335 187.496C145.589 186.019 144.112 184.412 144.491 181.148C144.843 178.917 144.758 176.639 144.241 174.44C143.852 173.102 141.975 171.216 140.907 171.306C139.419 171.435 137.692 172.923 136.784 174.3C136.105 175.298 136.524 177.115 136.524 178.562C136.524 202.079 136.524 225.599 136.524 249.123C136.504 250.87 136.504 252.607 136.504 254.613Z" fill="white"/>
<path d="M34.433 322.908C34.4936 317.545 35.6188 312.247 37.7434 307.322C39.8679 302.397 42.9496 297.944 46.8095 294.219C50.6693 290.495 55.2306 287.573 60.2286 285.625C65.2265 283.677 70.5617 282.741 75.9244 282.871C98.4272 283.45 116.308 301.926 115.858 324.115C115.389 346.464 96.8897 364.571 74.7264 364.282C69.3616 364.217 64.0625 363.094 59.1323 360.978C54.2021 358.863 49.7377 355.795 45.9949 351.952C42.252 348.109 39.3042 343.565 37.3202 338.581C35.3363 333.597 34.3551 328.271 34.433 322.908Z" fill="white"/>
<path d="M460.778 323.606C460.747 334.358 456.473 344.662 448.885 352.281C441.297 359.899 431.008 364.215 420.255 364.292C397.932 364.411 379.263 345.756 379.323 323.367C379.348 312.568 383.663 302.222 391.317 294.604C398.972 286.987 409.34 282.721 420.14 282.746C430.941 282.771 441.289 287.085 448.908 294.738C456.527 302.392 460.793 312.758 460.768 323.556L460.778 323.606Z" fill="white"/>
<path d="M288.264 323.596C288.248 331.627 285.853 339.473 281.383 346.145C276.912 352.817 270.565 358.015 263.143 361.085C255.721 364.154 247.556 364.957 239.678 363.392C231.799 361.828 224.561 357.965 218.876 352.292C213.191 346.619 209.314 339.39 207.733 331.516C206.152 323.642 206.94 315.477 209.995 308.05C213.051 300.623 218.238 294.268 224.902 289.785C231.566 285.302 239.409 282.893 247.441 282.861C258.254 282.861 268.625 287.15 276.279 294.787C283.932 302.424 288.242 312.785 288.264 323.596Z" fill="white"/>
<path d="M131.672 63.3338C131.615 70.421 129.458 77.3322 125.474 83.1944C121.49 89.0565 115.858 93.6067 109.289 96.2701C102.72 98.9335 95.5086 99.5905 88.5662 98.1583C81.6237 96.7261 75.2616 93.2688 70.2834 88.2233C65.3052 83.1777 61.9343 76.7702 60.5965 69.8101C59.2588 62.8501 60.0142 55.6498 62.7673 49.1187C65.5204 42.5877 70.1476 37.019 76.0646 33.116C81.9816 29.213 88.9228 27.1509 96.0114 27.1901C100.729 27.2123 105.397 28.1659 109.745 29.9961C114.094 31.8264 118.038 34.4973 121.351 37.8556C124.665 41.2138 127.282 45.1933 129.053 49.5655C130.824 53.9378 131.715 58.6167 131.672 63.3338Z" fill="white"/>
</g>
<defs>
<clipPath id="clip0_2019_7306">
<rect width="496" height="496" fill="white"/>
</clipPath>
</defs>
</svg>
