<svg width="384" height="384" viewBox="0 0 384 384" fill="none" xmlns="http://www.w3.org/2000/svg">
<path d="M191.975 274.554C190.644 286.197 189.312 297.84 187.981 309.483C185.894 327.977 183.937 346.491 181.73 364.976C180.342 376.658 170.147 382.68 159.323 378.379C153.332 375.998 149.927 371.567 149.588 364.996C149.508 363.375 149.518 361.745 149.518 360.124C149.518 317.621 149.485 275.115 149.418 232.605C149.227 230.335 148.438 228.157 147.132 226.293C145.391 223.849 143.508 221.511 141.49 219.291C135.359 211.75 132.104 203.288 132.503 193.375C132.973 182.273 132.054 171.03 133.422 160.058C136.098 138.522 147.781 122.769 167.372 112.146L181.98 164.949H182.659C183.847 155.406 185.245 145.884 186.074 136.312C186.254 134.261 184.696 131.801 183.378 129.93C180.852 126.36 181.171 123.209 183.278 119.548C185.275 116.057 187.632 114.137 191.865 114.297C198.146 114.527 202.3 117.438 203.298 123.689C203.588 125.519 202.629 127.89 201.521 129.53C200.396 131.088 199.597 132.858 199.173 134.734C198.749 136.609 198.709 138.551 199.055 140.443C200.353 148.575 201.161 156.777 202.839 165.089L217.517 112.186C229.154 117.558 238.751 126.545 244.886 137.812C249.587 146.256 252.106 155.742 252.216 165.409C252.375 176.031 252.325 186.664 252.216 197.286C252.216 201.377 251.407 205.428 249.838 209.204C248.268 212.981 245.968 216.409 243.069 219.291C236.399 226.013 235.081 233.505 235.141 242.537C235.53 282.286 235.321 322.045 235.291 361.805C235.291 371.167 231.067 376.948 222.899 379.069C213.493 381.509 204.826 376.328 203.468 366.716C201.471 352.493 200.043 338.189 198.415 323.916C196.578 307.782 194.801 291.638 192.984 275.505C192.898 275.172 192.767 274.852 192.594 274.554H191.975Z" fill="white"/>
<path d="M66.6112 85.7701L80.1511 134.712H80.86C81.8586 125.92 83.1666 117.137 83.8556 108.315C84.0154 106.235 82.4477 103.904 81.3293 101.884C78.9828 97.6529 80.5604 91.0714 84.7442 88.5108C88.6085 86.1402 95.2687 87.9806 97.8948 91.7815C100.521 95.5824 100.731 99.1433 97.8948 103.064C96.5908 104.859 95.9199 107.037 95.9876 109.256C96.72 117.836 97.9133 126.37 99.5623 134.822L113.332 85.09C118.474 88.8208 123.497 91.7815 127.651 95.6824C131.505 99.3133 134.421 103.934 137.756 108.125C138.974 109.656 138.754 110.826 137.356 112.296C121.58 128.86 114.32 148.755 114.59 171.52C114.71 181.893 114.49 192.275 115.109 202.618C115.758 213.49 121.23 222.482 127.651 230.974C128.836 232.51 129.532 234.368 129.648 236.305C129.774 263.558 129.794 290.808 129.708 318.055C129.708 329.427 121.11 336.359 110.406 333.788C104.585 332.388 100.99 328.587 100.171 322.706C98.7834 312.703 97.715 302.621 96.5667 292.569C94.4898 274.324 92.4362 256.077 90.4059 237.826C90.1796 237.172 89.8955 236.539 89.5571 235.935C88.8881 241.417 88.299 245.938 87.7997 250.399C85.1936 273.484 82.5475 296.57 80.0612 319.665C78.853 330.908 70.2558 336.879 59.7913 333.448C53.5406 331.448 50.0058 326.547 49.9659 319.535C49.886 304.661 49.9659 289.788 49.9659 274.904C49.9659 249.528 49.906 224.153 50.0358 198.777C50.0659 195.811 48.9988 192.939 47.0403 190.715C43.4466 186.266 40.1446 181.588 37.1549 176.711C35.5821 174.146 34.695 171.218 34.5787 168.209C34.5288 154.856 33.6801 141.333 35.4275 128.2C37.9737 109.046 49.0473 95.0923 66.6112 85.7701Z" fill="white"/>
<path d="M294.543 236.966C292.965 250.842 291.384 264.715 289.8 278.585C288.222 292.589 286.804 306.652 285.067 320.655C283.779 331.248 275.082 336.659 265.097 333.508C259.245 331.648 255.271 326.957 255.241 320.795C255.101 292.302 255.085 263.805 255.191 235.305C255.281 233.963 255.795 232.684 256.659 231.654C266.325 219.862 271.118 206.548 270.349 191.145C269.82 180.542 270.499 169.88 269.7 159.307C268.312 140.803 260.543 125.009 247.632 111.746C247.283 111.386 246.963 111.016 246.414 110.396C252.054 99.7328 260.938 91.146 271.777 85.8801L285.267 134.622H285.996C287.044 125.839 288.282 117.067 288.991 108.255C289.151 106.255 287.783 103.974 286.575 102.194C284.418 99.0032 284.348 96.1925 286.345 92.8418C288.342 89.491 290.339 87.6105 294.553 87.5805C298.767 87.5505 301.413 89.0209 303.599 92.7017C305.906 96.5726 305.217 99.5833 302.96 103.054C301.71 104.881 301.058 107.051 301.093 109.266C301.856 117.869 303.069 126.426 304.728 134.902L318.358 85.7001C334.244 93.7019 344.479 105.765 348.792 122.569C349.872 127.312 350.438 132.158 350.48 137.022C350.749 144.884 350.21 152.786 350.64 160.638C351.179 170.49 348.223 179.092 341.653 186.014C336.111 191.815 334.723 198.086 334.793 205.878C335.153 243.117 334.963 280.366 334.943 317.614C334.943 325.846 331.798 330.828 325.247 333.228C315.262 336.879 306.345 331.578 305.017 320.985C303.559 309.343 302.381 297.65 301.023 285.977C299.226 269.973 297.422 253.97 295.611 237.966C295.523 237.613 295.382 237.275 295.192 236.966H294.543Z" fill="white"/>
<path d="M164.386 61.6944C164.026 45.1106 167.801 34.088 179.983 27.6865C196.958 18.7844 217.158 29.3869 219.923 48.8814C222.31 65.8854 218.725 81.6491 207.582 95.2023C203.588 100.103 198.905 103.594 192.035 103.384C189.65 103.385 187.293 102.875 185.121 101.888C182.95 100.901 181.014 99.4606 179.444 97.6629C169.329 86.4502 164.296 73.2371 164.386 61.6944Z" fill="white"/>
<path d="M116.257 34.7682C116.207 47.5052 111.92 59.8622 104.076 69.8864C96.2073 80.0588 82.9569 79.9387 75.3382 69.4863C65.1634 55.543 61.2392 40.3495 65.1733 23.5555C68.0191 11.3927 79.1526 3.77089 91.694 4.38103C103.327 4.95117 113.202 13.8933 115.259 25.8561C115.758 28.8068 115.928 31.7975 116.257 34.7682Z" fill="white"/>
<path d="M268.831 34.6381C268.761 26.5362 270.329 18.9245 276.07 12.813C283.29 5.16123 292.206 2.41059 302.261 5.41129C312.317 8.412 318.647 15.4136 320.305 25.8661C322.871 42.0299 319.306 56.7533 309.161 69.8764C301.343 79.9788 288.082 80.0688 280.424 69.4763C272.625 58.6338 268.891 48.4314 268.831 34.6381Z" fill="white"/>
</svg>
