<svg width="513" height="512" viewBox="0 0 513 512" fill="none" xmlns="http://www.w3.org/2000/svg">
<path d="M262 0C266.19 1 270.43 1.73 274.55 2.9C303.46 11.11 320.39 36.01 319.55 66.19C319.051 80.4765 313.72 94.1712 304.429 105.035C295.138 115.899 282.436 123.29 268.4 126C229.63 133.17 193.61 105.46 192.47 66.17C191.4 29.35 215.73 5.17 246.7 0.910004C247.82 0.682824 248.922 0.378767 250 0H262Z" fill="white"/>
<path d="M0 230C0.76 226.8 1.37999 223.57 2.29999 220.42C7.68999 201.96 19.16 188.59 36.42 180.23C37.1855 179.895 38.0144 179.729 38.8499 179.745C39.6853 179.76 40.5075 179.957 41.26 180.32C68.6733 198.54 97.8733 202.177 128.86 191.23C129.474 191.121 130.097 191.081 130.72 191.11C130.72 201.29 130.82 211.37 130.55 221.44C130.55 222.36 128.21 223.79 126.81 224.01C105.56 227.35 84.69 232.09 64.49 239.62C45.76 246.62 34.49 262.37 34.22 282.35C34.07 294.35 34.22 306.35 34.22 318.22C17.31 322.37 6.78001 319.22 0.0400085 308.01C0.0133419 282.003 0 256 0 230Z" fill="white"/>
<path d="M512 308C508 316.65 501.15 319.87 491.86 319.06C487.43 318.68 482.93 318.99 477.86 318.99C477.86 310.51 478 302.42 477.86 294.32C477.69 287.01 478.09 279.52 476.62 272.44C473.34 256.66 463.62 245.72 448.53 239.93C428.24 232.17 407.2 227.29 385.74 224.22C382.47 223.75 381.18 222.89 381.26 219.41C381.48 210.1 381.34 200.78 381.34 191.03C382.446 191.206 383.541 191.443 384.62 191.74C414.62 201.81 442.98 198.39 469.5 181.03C472.04 179.37 473.84 179.03 476.62 180.48C495.54 190.41 507.23 205.62 511.14 226.71C511.35 227.82 511.76 228.9 512.08 229.99L512 308Z" fill="white"/>
<path d="M271 510.43V504.87C271 430.05 270.967 355.233 270.9 280.42C270.9 276.24 272.2 273.83 275.66 271.58C294.46 259.38 315.27 253.58 337.36 252.15C371.44 249.99 404.36 256.15 436.36 267.43C444.26 270.2 447.75 275.22 447.75 283.71C447.79 347.043 447.79 410.377 447.75 473.71C447.75 486.34 437.99 492.87 425.88 488.71C398.1 479.07 369.65 473.38 340.12 475.19C312.67 476.88 288.75 486 272.37 509.69C272.25 509.82 271.9 509.91 271 510.43ZM365.68 380.2C354.5 380.5 343.74 381.75 332.92 383.5C330.975 383.773 329.104 384.434 327.417 385.442C325.731 386.451 324.264 387.786 323.103 389.371C321.942 390.955 321.109 392.757 320.655 394.668C320.201 396.579 320.135 398.562 320.46 400.5C322.09 409.02 329.2 414.41 338.02 412.84C352.57 410.25 367.12 410.05 381.8 410.96C391.2 411.54 398.01 405.41 398.33 396.81C398.65 388.21 392.48 381.69 383.13 381.06C377.33 380.7 371.5 380.49 365.68 380.2ZM365.86 315.75C354.5 315.75 343.59 317.5 332.59 319.19C328.837 319.819 325.471 321.867 323.188 324.912C320.905 327.956 319.882 331.762 320.33 335.54C321.46 343.54 328.73 350.1 336.33 348.76C351.777 346.157 367.487 345.485 383.1 346.76C391.34 347.36 397.91 340.67 398.3 332.69C398.71 324.35 392.8 317.69 384.3 316.95C378.17 316.44 372.5 316 365.86 315.75Z" fill="white"/>
<path d="M241 511.13C238.11 507.53 236.08 504.77 233.83 502.21C219.78 486.21 201.51 478.57 180.91 476.01C148.64 472.01 117.6 478.01 87.12 488.17C84.8006 489.084 82.3745 489.699 79.9 490C76.4658 490.244 73.0587 489.242 70.3035 487.178C67.5484 485.113 65.6299 482.125 64.9 478.76C64.4038 476.316 64.1858 473.823 64.25 471.33C64.25 409.677 64.25 348.01 64.25 286.33C64.25 274.33 66.77 270.55 77.92 266.7C109 255.94 141 250.1 174 252.11C196.27 253.46 217.27 259.2 236.21 271.52C239.6 273.73 241.09 276.05 241.09 280.29C240.95 355.27 240.917 430.253 240.99 505.24C241 506.83 241 508.42 241 511.13ZM178.5 413C182.083 412.011 184.2 411.21 187.01 408.74C191.44 404.85 192.88 399.55 191.01 393.74C189.01 387.58 184.43 384.35 178.23 383.21C161.973 380.359 145.412 379.646 128.97 381.09C119.4 381.83 113.14 388.44 113.72 397.29C114.28 405.84 121.07 411.29 130.66 411.1C140.66 410.95 150.66 410.8 160.59 411.1C165.83 411.28 171.72 414.872 178.5 413ZM149.27 315.55C140 315 133.74 316.4 127.44 316.98C118.7 317.78 113.3 324.22 113.81 332.93C114.34 342.05 121.47 347.68 131.6 346.7C145.379 345.345 159.279 345.917 172.9 348.4C182.22 350.1 189.75 345.21 191.51 336.28C193.11 328.17 187.38 320.37 178.17 319C167.65 317.44 157 316.46 149.27 315.55Z" fill="white"/>
<path d="M351.21 221.07C340.51 222.07 330.38 222.62 320.36 223.98C298.647 226.782 277.85 234.464 259.53 246.45C257.53 247.78 255.97 248.81 253.35 247.07C227.18 229.62 197.98 222.44 166.86 221.86C165.06 221.86 163.26 221.68 161.55 221.59C153.55 188.2 167.5 155.45 195.74 140.59C198.61 139.08 200.56 139.08 203.32 141C234.46 162.6 277.75 162.5 309.02 140.78C311.46 139.09 313.19 138.95 315.73 140.3C338.23 152.3 350.38 170.79 351.17 196.42C351.42 204.67 351.21 213 351.21 221.07Z" fill="white"/>
<path d="M416.8 167.32C382 167.42 353.06 139 353 104.57C352.91 68.1299 380.27 40.4699 416.53 40.3199C452.79 40.1699 480.21 67.7399 480.31 104.32C480.38 138.73 451.7 167.22 416.8 167.32Z" fill="white"/>
<path d="M95.4 167.32C60.52 167.32 31.78 139.01 31.71 104.49C31.63 68.04 59 40.41 95.27 40.32C131.54 40.23 159 68 159 104.35C159 138.76 130.21 167.28 95.4 167.32Z" fill="white"/>
</svg>
