<svg width="662" height="414" viewBox="0 0 662 414" fill="none" xmlns="http://www.w3.org/2000/svg">
<path opacity="0.8" d="M632.847 166.01C625.633 140.016 577.543 168.291 577.543 168.291L590.131 145.447C591.653 143.151 592.985 140.734 594.113 138.22C600.439 124.078 600.357 108.91 594.113 95.7752C592.401 87.779 587.137 76.3479 572.736 63.7902C545.483 40.1129 454.108 23.9005 427.614 27.5002C401.12 31.0999 451.664 42.2379 451.664 42.2379H447.663C370.625 34.0676 293.111 33.0142 216.202 34.608C196.913 35.0018 177.568 35.643 158.682 38.8946C153.253 39.8106 147.412 41.2669 144.172 45.6544C129.853 65.1 188.582 66.996 197.828 66.6205C157.483 71.8689 112.688 73.481 75.1533 89.0796C69.9259 91.2504 64.7351 93.8334 60.7894 97.8544C56.8437 101.875 55.2965 107.527 55.1683 113.343C54.8021 128.704 79.4836 134.41 93.7193 138.651C93.7193 138.651 18.9061 188.424 27.7222 213.686C31.7265 225.684 38.254 236.684 46.8649 245.945C41.1369 252.975 36.1945 260.611 32.1256 268.716C29.7362 273.607 26.6327 280.303 29.2785 285.936C42.9009 314.624 249.553 413.125 415.145 385.005C459.134 377.54 502.949 365.193 541.482 343.357C579.859 321.621 618.968 285.716 628.636 240.45C628.956 238.957 629.185 237.51 629.35 236.099C635.429 215.243 638.889 187.755 632.847 166.01Z" fill="white"/>
<path d="M532.397 332.772C532.397 332.862 435.792 332.939 316.648 332.939C197.504 332.939 100.879 332.862 100.879 332.772C100.879 332.682 197.465 332.605 316.648 332.605C435.83 332.605 532.397 332.676 532.397 332.772Z" fill="#263238"/>
<path d="M153.951 108.348H480.914C482.063 108.348 483.165 108.804 483.977 109.615C484.79 110.427 485.246 111.527 485.246 112.675V321.132C485.244 323.611 484.258 325.988 482.503 327.74C480.749 329.493 478.37 330.478 475.889 330.48H158.334C155.851 330.48 153.469 329.494 151.713 327.74C149.957 325.986 148.971 323.607 148.971 321.126V113.317C148.972 111.999 149.498 110.735 150.432 109.803C151.366 108.871 152.632 108.348 153.951 108.348Z" fill="#455A64"/>
<path d="M134.908 314.058H499.236V324.702C499.236 327.038 498.307 329.279 496.653 330.93C495 332.582 492.757 333.51 490.419 333.51H143.726C141.387 333.51 139.144 332.582 137.491 330.93C135.837 329.279 134.908 327.038 134.908 324.702V314.058Z" fill="#455A64"/>
<path d="M475.277 117.163H157.992V304.761H475.277V117.163Z" fill="#F5F5F5"/>
<path d="M283.955 314.058L288.479 321.242H352.097L356.294 314.058H283.955Z" fill="#263238"/>
<path d="M485.303 313.987H149.021V315.059H485.303V313.987Z" fill="#263238"/>
<path d="M247.832 108.348H212.896V96.0473C212.896 87.3739 219.934 80.0358 228.616 80.0358L247.832 80.3375V108.348Z" fill="#E0E0E0"/>
<path d="M227.863 80.0165C227.863 80.0165 247.747 78.2125 247.747 104.117V305.609H403.787V96.792C403.786 94.5413 403.341 92.3129 402.477 90.2342C401.613 88.1555 400.348 86.2673 398.753 84.6776C397.158 83.0879 395.265 81.828 393.182 80.9698C391.1 80.1116 388.868 79.672 386.615 79.6763L227.863 80.0165Z" fill="white"/>
<path d="M227.864 80.0165L343.306 79.6442L371.262 79.5671L386.127 79.5222C388.731 79.4508 391.318 79.966 393.696 81.0296C396.073 82.0932 398.18 83.6779 399.861 85.6661C401.581 87.7129 402.802 90.1303 403.428 92.7281C403.593 93.3808 403.715 94.0435 403.794 94.7119C403.884 95.3539 403.878 96.0537 403.923 96.7278C403.923 98.0674 403.923 99.4156 403.923 100.772C403.923 106.178 403.923 111.671 403.923 117.253C403.923 128.402 403.923 139.87 403.923 151.657C403.923 198.742 403.923 250.525 403.923 304.839V305.776H403.756H247.716H247.562V305.622C247.562 235.862 247.607 176.625 247.626 134.85C247.626 124.398 247.626 115.038 247.626 106.878C247.626 104.836 247.626 102.872 247.511 100.991C247.398 99.1854 247.149 97.3912 246.765 95.6235C246.396 94.0127 245.884 92.4379 245.236 90.9177C244.625 89.5599 243.876 88.2691 242.999 87.0657C241.498 85.0644 239.573 83.4182 237.363 82.2443C235.748 81.3909 234.015 80.7809 232.222 80.4338C231.134 80.2129 230.028 80.0883 228.918 80.0615C228.173 80.0615 227.787 80.0615 227.787 80.0615C228.164 80.039 228.542 80.039 228.918 80.0615C230.032 80.08 231.141 80.196 232.234 80.4081C234.028 80.7508 235.76 81.3565 237.376 82.2057C239.602 83.3758 241.54 85.0247 243.05 87.0336C243.935 88.2366 244.693 89.5274 245.313 90.8856C245.968 92.4118 246.486 93.9931 246.861 95.6107C247.25 97.3845 247.504 99.1851 247.62 100.997C247.761 102.885 247.742 104.849 247.742 106.891C247.742 115.05 247.742 124.411 247.742 134.863C247.742 176.663 247.774 235.901 247.8 305.635L247.646 305.487H403.685L403.518 305.654V304.883C403.518 250.551 403.518 198.787 403.518 151.702C403.518 139.928 403.518 128.46 403.518 117.297V100.772C403.479 98.0696 403.717 95.3603 403.036 92.7923C402.45 90.2596 401.291 87.8945 399.649 85.878C397.999 83.9207 395.929 82.36 393.593 81.3119C391.256 80.2637 388.713 79.7552 386.153 79.8239H371.256L343.255 79.8689L227.864 80.0165Z" fill="#263238"/>
<path d="M314.541 141.167C314.541 141.257 305.049 141.334 293.333 141.334C281.617 141.334 272.125 141.257 272.125 141.167C272.125 141.077 281.611 141 293.333 141C305.055 141 314.541 141.09 314.541 141.167Z" fill="#263238"/>
<path d="M324.039 146.226C324.039 146.322 312.426 146.393 298.094 146.393C283.763 146.393 272.156 146.322 272.156 146.226C272.156 146.13 283.769 146.059 298.094 146.059C312.419 146.059 324.039 146.136 324.039 146.226Z" fill="#263238"/>
<path d="M327.446 166.16C327.446 166.25 315.454 166.327 300.659 166.327C285.865 166.327 273.873 166.25 273.873 166.16C273.873 166.07 285.865 165.993 300.659 165.993C315.454 165.993 327.446 166.064 327.446 166.16Z" fill="#263238"/>
<path d="M362.439 185.587C362.439 185.677 342.388 185.754 317.658 185.754C292.928 185.754 272.877 185.677 272.877 185.587C272.877 185.497 292.922 185.42 317.658 185.42C342.394 185.42 362.439 185.491 362.439 185.587Z" fill="#263238"/>
<path d="M362.439 191.378C362.439 191.474 342.388 191.545 317.658 191.545C292.928 191.545 272.877 191.474 272.877 191.378C272.877 191.282 292.922 191.211 317.658 191.211C342.394 191.211 362.439 191.288 362.439 191.378Z" fill="#263238"/>
<path d="M362.439 197.175C362.439 197.271 342.388 197.342 317.658 197.342C292.928 197.342 272.877 197.271 272.877 197.175C272.877 197.079 292.922 197.008 317.658 197.008C342.394 197.008 362.439 197.085 362.439 197.175Z" fill="#263238"/>
<path d="M362.439 202.972C362.439 203.062 342.388 203.139 317.658 203.139C292.928 203.139 272.877 203.062 272.877 202.972C272.877 202.882 292.922 202.805 317.658 202.805C342.394 202.805 362.439 202.882 362.439 202.972Z" fill="#263238"/>
<path d="M362.439 208.77C362.439 208.86 342.388 208.937 317.658 208.937C292.928 208.937 272.877 208.86 272.877 208.77C272.877 208.68 292.922 208.603 317.658 208.603C342.394 208.603 362.439 208.673 362.439 208.77Z" fill="#263238"/>
<path d="M306.842 214.567C306.842 214.657 299.233 214.734 289.856 214.734C280.48 214.734 272.877 214.657 272.877 214.567C272.877 214.477 280.48 214.4 289.856 214.4C299.233 214.4 306.842 214.471 306.842 214.567Z" fill="#263238"/>
<path d="M287.002 111.224C286.997 110.727 287.096 110.235 287.291 109.777C287.486 109.32 287.773 108.908 288.136 108.568C288.498 108.227 288.927 107.965 289.395 107.798C289.864 107.631 290.362 107.562 290.858 107.597C291.423 107.566 291.988 107.666 292.509 107.889C293.029 108.112 293.491 108.451 293.859 108.881L292.606 110.017C292.413 109.764 292.164 109.559 291.879 109.417C291.594 109.276 291.279 109.202 290.961 109.202C290.433 109.202 289.926 109.412 289.552 109.785C289.179 110.158 288.969 110.664 288.969 111.192C288.969 111.72 289.179 112.226 289.552 112.599C289.926 112.973 290.433 113.182 290.961 113.182C291.279 113.182 291.594 113.108 291.879 112.967C292.164 112.825 292.413 112.62 292.606 112.367L293.859 113.497C293.494 113.932 293.034 114.278 292.513 114.506C291.992 114.734 291.426 114.839 290.858 114.813C290.365 114.847 289.87 114.78 289.404 114.615C288.938 114.45 288.511 114.192 288.15 113.855C287.788 113.519 287.5 113.111 287.302 112.659C287.105 112.206 287.003 111.718 287.002 111.224Z" fill="#263238"/>
<path d="M300.312 113.182V114.704H294.715V107.738H300.184V109.26H296.662V110.434H299.766V111.911H296.662V113.195L300.312 113.182Z" fill="#263238"/>
<path d="M304.456 112.842H303.383V114.691H301.41V107.738H304.623C306.551 107.738 307.721 108.72 307.721 110.306C307.738 110.767 307.617 111.222 307.373 111.613C307.129 112.004 306.774 112.314 306.352 112.502L307.863 114.691H305.748L304.456 112.842ZM304.456 109.279H303.364V111.32H304.456C305.273 111.32 305.684 110.942 305.684 110.306C305.684 109.671 305.292 109.292 304.476 109.292L304.456 109.279Z" fill="#263238"/>
<path d="M310.164 109.298H308.023V107.738H314.27V109.298H312.137V114.704H310.164V109.298Z" fill="#263238"/>
<path d="M315.01 107.738H316.983V114.704H315.01V107.738Z" fill="#263238"/>
<path d="M320.364 109.26V110.794H323.442V112.316H320.364V114.704H318.391V107.738H323.86V109.26H320.364Z" fill="#263238"/>
<path d="M324.785 107.738H326.758V114.704H324.785V107.738Z" fill="#263238"/>
<path d="M327.805 111.224C327.801 110.727 327.9 110.235 328.095 109.779C328.291 109.322 328.578 108.91 328.94 108.57C329.302 108.229 329.731 107.967 330.199 107.8C330.667 107.632 331.165 107.563 331.661 107.597C332.225 107.566 332.789 107.667 333.308 107.889C333.828 108.112 334.289 108.451 334.656 108.881L333.402 110.017C333.21 109.764 332.961 109.558 332.676 109.417C332.39 109.275 332.076 109.202 331.757 109.202C331.229 109.202 330.722 109.412 330.348 109.785C329.975 110.158 329.765 110.664 329.765 111.192C329.765 111.72 329.975 112.226 330.348 112.599C330.722 112.973 331.229 113.182 331.757 113.182C332.076 113.183 332.39 113.109 332.676 112.968C332.961 112.826 333.21 112.621 333.402 112.367L334.656 113.497C334.292 113.932 333.832 114.278 333.313 114.506C332.793 114.734 332.228 114.839 331.661 114.813C329.431 114.845 327.805 113.343 327.805 111.224Z" fill="#263238"/>
<path d="M340.068 113.349H337.125L336.572 114.704H334.561L337.639 107.738H339.567L342.652 114.704H340.602L340.068 113.349ZM339.496 111.898L338.596 109.671L337.697 111.898H339.496Z" fill="#263238"/>
<path d="M344.367 109.298H342.227V107.738H348.473V109.298H346.34V114.704H344.367V109.298Z" fill="#263238"/>
<path d="M349.207 107.738H351.18V114.704H349.207V107.738Z" fill="#263238"/>
<path d="M352.227 111.224C352.227 109.131 353.872 107.597 356.083 107.597C358.293 107.597 359.939 109.131 359.939 111.224C359.939 113.317 358.293 114.845 356.083 114.845C353.872 114.845 352.227 113.311 352.227 111.224ZM358.011 111.224C357.989 110.858 357.861 110.505 357.641 110.21C357.422 109.916 357.121 109.692 356.776 109.566C356.43 109.44 356.056 109.418 355.698 109.503C355.34 109.587 355.015 109.774 354.762 110.041C354.51 110.308 354.341 110.643 354.277 111.005C354.212 111.366 354.256 111.739 354.401 112.076C354.546 112.414 354.787 112.701 355.094 112.903C355.4 113.106 355.76 113.214 356.128 113.214C356.383 113.214 356.636 113.161 356.87 113.059C357.104 112.958 357.315 112.809 357.489 112.622C357.663 112.435 357.797 112.215 357.882 111.975C357.968 111.734 358.002 111.479 357.985 111.224H358.011Z" fill="#263238"/>
<path d="M367.65 107.738V114.704H366.024L362.946 110.993V114.704H361.018V107.738H362.637L365.715 111.449V107.738H367.65Z" fill="#263238"/>
<path d="M375.555 239.034C375.555 239.123 366.661 239.2 355.697 239.2C344.733 239.2 335.832 239.123 335.832 239.034C335.832 238.944 344.727 238.867 355.697 238.867C366.667 238.867 375.555 238.944 375.555 239.034Z" fill="#263238"/>
<path d="M375.555 244.632C375.555 244.722 366.661 244.799 355.697 244.799C344.733 244.799 335.832 244.722 335.832 244.632C335.832 244.542 344.707 244.452 355.703 244.452C366.699 244.452 375.555 244.542 375.555 244.632Z" fill="#263238"/>
<path d="M372.92 268.957C372.911 268.863 372.911 268.769 372.92 268.675C372.92 268.476 372.888 268.206 372.863 267.859C372.863 267.68 372.85 267.481 372.824 267.262C372.824 267.038 372.753 266.8 372.715 266.543C372.635 265.945 372.513 265.352 372.349 264.771C371.943 263.164 371.293 261.629 370.421 260.22C368.381 256.812 365.216 254.221 361.471 252.893C357.725 251.566 353.633 251.584 349.9 252.946C349.138 253.22 348.395 253.546 347.677 253.921C346.949 254.322 346.249 254.77 345.581 255.263C344.904 255.769 344.26 256.318 343.653 256.907C343.054 257.529 342.496 258.189 341.983 258.884C340.922 260.306 340.099 261.891 339.547 263.577C338.373 267.066 338.373 270.842 339.547 274.331C340.099 276.016 340.922 277.601 341.983 279.024C342.496 279.718 343.054 280.379 343.653 281.001C344.26 281.59 344.904 282.139 345.581 282.645C346.893 283.636 348.35 284.42 349.9 284.969C352.763 286.006 355.85 286.265 358.846 285.72C361.233 285.274 363.498 284.327 365.492 282.943C367.486 281.559 369.164 279.768 370.414 277.688C371.286 276.279 371.937 274.744 372.342 273.137C372.507 272.556 372.629 271.963 372.708 271.365C372.747 271.108 372.792 270.87 372.818 270.652C372.843 270.434 372.818 270.228 372.856 270.049C372.856 269.702 372.901 269.407 372.914 269.233C372.904 269.141 372.904 269.049 372.914 268.957C372.923 269.049 372.923 269.141 372.914 269.233V270.055C372.914 270.235 372.914 270.44 372.914 270.658C372.914 270.877 372.856 271.121 372.818 271.384C372.753 271.987 372.641 272.583 372.483 273.169C372.099 274.795 371.466 276.351 370.607 277.785C368.561 281.259 365.363 283.908 361.567 285.273C357.771 286.638 353.616 286.633 349.823 285.258C349.045 284.98 348.287 284.65 347.554 284.269C346.811 283.865 346.098 283.408 345.421 282.901C344.724 282.39 344.063 281.832 343.441 281.232C342.83 280.599 342.261 279.925 341.738 279.216C340.655 277.767 339.815 276.152 339.251 274.433C338.052 270.879 338.052 267.029 339.251 263.474C339.817 261.757 340.657 260.142 341.738 258.692C342.261 257.983 342.832 257.312 343.448 256.682C344.067 256.08 344.727 255.521 345.421 255.006C347.37 253.568 349.601 252.556 351.967 252.034C354.333 251.511 356.783 251.492 359.158 251.976C361.532 252.46 363.778 253.438 365.751 254.844C367.723 256.251 369.377 258.056 370.607 260.142C371.465 261.576 372.098 263.133 372.483 264.758C372.642 265.346 372.753 265.945 372.818 266.55C372.856 266.813 372.895 267.05 372.914 267.269C372.933 267.487 372.914 267.692 372.914 267.879V268.694C372.924 268.781 372.926 268.869 372.92 268.957Z" fill="#8B0303"/>
<path d="M366.457 271.504C367.871 265.564 364.198 259.604 358.251 258.191C352.305 256.778 346.339 260.448 344.924 266.388C343.51 272.327 347.184 278.288 353.13 279.701C359.076 281.114 365.043 277.444 366.457 271.504Z" fill="#8B0303"/>
<path d="M380.311 259.436L379.849 259.693L378.467 260.425L373.152 263.192L364.752 267.564C363.898 268.008 362.975 268.304 362.021 268.437C361.502 268.502 360.974 268.457 360.474 268.304C359.973 268.152 359.511 267.895 359.116 267.551C358.697 267.189 358.399 266.707 358.261 266.171C358.183 265.891 358.175 265.596 358.239 265.312C358.303 265.029 358.437 264.766 358.628 264.547C359.029 264.108 359.583 263.842 360.177 263.802C360.487 263.76 360.803 263.82 361.077 263.973C361.35 264.125 361.566 264.363 361.693 264.649V264.694C361.709 266.548 361.049 268.344 359.836 269.747C359.202 270.505 358.418 271.124 357.533 271.566C356.649 272.008 355.682 272.263 354.695 272.315C353.653 272.371 352.61 272.217 351.629 271.863C350.647 271.509 349.747 270.962 348.981 270.254C348.153 269.529 347.577 268.56 347.336 267.487C347.225 266.922 347.302 266.336 347.555 265.818C347.811 265.288 348.255 264.871 348.801 264.649C349.084 264.541 349.39 264.506 349.69 264.547C349.99 264.589 350.275 264.706 350.517 264.887C350.98 265.256 351.319 265.758 351.488 266.325C351.671 266.873 351.76 267.448 351.751 268.026C351.777 268.312 351.777 268.6 351.751 268.887C351.737 269.176 351.701 269.463 351.642 269.747C351.19 272.081 349.918 274.178 348.056 275.66C347.117 276.437 346.026 277.009 344.853 277.341C343.68 277.672 342.451 277.756 341.244 277.586C338.756 277.169 336.524 275.813 335.01 273.798C334.126 272.668 333.514 271.35 333.223 269.946C332.908 268.55 333.017 267.093 333.538 265.76C333.821 265.093 334.3 264.529 334.913 264.142C335.535 263.759 336.277 263.619 336.996 263.751C337.347 263.831 337.677 263.987 337.962 264.209C338.246 264.431 338.478 264.713 338.641 265.035C338.954 265.643 339.183 266.291 339.322 266.961C339.925 269.556 339.76 272.27 338.846 274.774C337.982 277.184 336.314 279.224 334.123 280.552C332.038 281.822 329.588 282.357 327.163 282.073C326.005 281.933 324.886 281.571 323.866 281.007C322.879 280.452 322.006 279.713 321.295 278.831C319.922 277.173 319.17 275.089 319.168 272.938C319.189 271.925 319.407 270.926 319.811 269.997C319.984 269.537 320.25 269.118 320.593 268.765C320.936 268.413 321.348 268.135 321.803 267.949C322.266 267.805 322.76 267.792 323.23 267.911C323.671 268.056 324.073 268.299 324.406 268.623C325.025 269.248 325.49 270.008 325.762 270.845C326.041 271.617 326.186 272.431 326.192 273.252C326.192 273.65 326.192 274.035 326.192 274.421C326.192 274.806 326.16 275.178 326.122 275.544C325.881 278.066 325.145 280.516 323.956 282.754C323.209 284.164 322.284 285.474 321.205 286.651C320.839 287.055 320.53 287.338 320.325 287.53C320.119 287.723 320.01 287.813 320.01 287.813C320.01 287.813 320.106 287.704 320.305 287.505C320.505 287.306 320.794 287.017 321.154 286.606C322.204 285.415 323.106 284.103 323.84 282.696C324.996 280.466 325.708 278.032 325.935 275.531C325.974 275.165 325.993 274.793 326 274.414C326.006 274.035 326 273.65 326 273.259C325.988 272.459 325.843 271.667 325.569 270.915C325.311 270.117 324.871 269.389 324.284 268.79C323.976 268.496 323.604 268.276 323.197 268.148C322.774 268.042 322.329 268.056 321.912 268.187C321.489 268.364 321.107 268.627 320.79 268.958C320.472 269.29 320.227 269.683 320.068 270.113C319.693 271.013 319.494 271.976 319.483 272.95C319.496 275.04 320.231 277.061 321.565 278.671C322.259 279.538 323.118 280.26 324.091 280.795C325.065 281.331 326.135 281.669 327.24 281.791C329.599 282.061 331.981 281.537 334.007 280.301C336.139 279.003 337.757 277.01 338.589 274.658C339.48 272.214 339.639 269.564 339.046 267.031C338.917 266.39 338.701 265.77 338.403 265.189C338.263 264.905 338.062 264.656 337.814 264.46C337.566 264.263 337.278 264.124 336.97 264.052C336.334 263.937 335.677 264.065 335.132 264.412C334.573 264.758 334.138 265.273 333.891 265.882C333.395 267.149 333.291 268.536 333.596 269.862C333.878 271.218 334.469 272.49 335.325 273.58C336.788 275.522 338.94 276.832 341.34 277.239C342.503 277.397 343.687 277.312 344.816 276.988C345.944 276.664 346.993 276.109 347.895 275.358C349.698 273.928 350.929 271.901 351.366 269.644C351.468 269.098 351.511 268.543 351.494 267.988C351.505 267.443 351.422 266.9 351.25 266.383C351.098 265.88 350.801 265.433 350.395 265.099C350.194 264.949 349.958 264.854 349.71 264.82C349.461 264.786 349.209 264.816 348.975 264.906C348.504 265.102 348.12 265.463 347.895 265.92C347.671 266.379 347.604 266.897 347.702 267.397C347.937 268.395 348.482 269.294 349.258 269.965C349.991 270.648 350.854 271.176 351.796 271.519C352.737 271.862 353.739 272.013 354.74 271.962C355.687 271.912 356.614 271.668 357.462 271.244C358.31 270.819 359.062 270.224 359.669 269.496C360.845 268.146 361.489 266.414 361.481 264.624V264.669C361.375 264.426 361.191 264.227 360.958 264.102C360.725 263.978 360.456 263.935 360.196 263.982C359.672 264.011 359.179 264.241 358.82 264.624C358.654 264.814 358.537 265.043 358.481 265.289C358.425 265.536 358.431 265.792 358.499 266.036C358.621 266.535 358.895 266.984 359.283 267.32C359.651 267.645 360.083 267.887 360.552 268.031C361.021 268.175 361.515 268.217 362.002 268.155C362.932 268.032 363.835 267.75 364.669 267.32L373.088 263.038L378.441 260.335L379.836 259.635L380.311 259.436Z" fill="#263238"/>
<path d="M322.741 101.061C322.741 101.158 309.149 101.235 292.382 101.235C275.614 101.235 262.016 101.158 262.016 101.061C262.016 100.965 275.608 100.894 292.382 100.894C309.155 100.894 322.741 100.971 322.741 101.061Z" fill="#E0E0E0"/>
<path d="M332.862 101.061C331.467 101.292 330.042 101.292 328.646 101.061C330.043 100.839 331.466 100.839 332.862 101.061Z" fill="#E0E0E0"/>
<path d="M393.313 101.061C393.313 101.158 380.909 101.235 365.62 101.235C350.331 101.235 337.928 101.158 337.928 101.061C337.928 100.965 350.318 100.894 365.62 100.894C380.922 100.894 393.313 100.971 393.313 101.061Z" fill="#E0E0E0"/>
<path d="M322.741 117.939C322.741 118.036 309.149 118.106 292.382 118.106C275.614 118.106 262.016 118.036 262.016 117.939C262.016 117.843 275.608 117.773 292.382 117.773C309.155 117.773 322.741 117.85 322.741 117.939Z" fill="#E0E0E0"/>
<path d="M332.862 117.939C331.466 118.162 330.043 118.162 328.646 117.939C330.043 117.717 331.466 117.717 332.862 117.939Z" fill="#E0E0E0"/>
<path d="M393.313 117.939C393.313 118.036 380.909 118.106 365.62 118.106C350.331 118.106 337.928 118.036 337.928 117.939C337.928 117.843 350.318 117.773 365.62 117.773C380.922 117.773 393.313 117.85 393.313 117.939Z" fill="#E0E0E0"/>
<path d="M378.453 184.746L362.521 221.732C362.445 221.904 362.423 222.095 362.457 222.28C362.492 222.466 362.582 222.636 362.716 222.769C362.85 222.902 363.021 222.991 363.206 223.025C363.392 223.058 363.583 223.035 363.755 222.958L376.037 217.539C376.157 217.484 376.288 217.455 376.421 217.454C376.554 217.453 376.685 217.48 376.806 217.533C376.928 217.586 377.037 217.665 377.126 217.763C377.214 217.862 377.281 217.978 377.322 218.104L381.467 230.527C381.531 230.71 381.649 230.868 381.807 230.981C381.965 231.093 382.154 231.153 382.348 231.153C382.541 231.153 382.73 231.093 382.888 230.981C383.046 230.868 383.165 230.71 383.228 230.527L398.209 190.633L378.453 184.746Z" fill="#8B0303"/>
<path d="M399.219 190.928L406.847 230.463C406.883 230.648 406.973 230.817 407.107 230.95C407.24 231.083 407.411 231.172 407.596 231.207C407.781 231.241 407.972 231.219 408.145 231.144C408.317 231.069 408.463 230.943 408.563 230.784L415.671 219.414C415.74 219.304 415.831 219.209 415.939 219.136C416.047 219.062 416.169 219.012 416.297 218.989C416.425 218.965 416.557 218.969 416.684 218.999C416.81 219.029 416.93 219.085 417.033 219.164L427.451 227.118C427.605 227.234 427.791 227.3 427.984 227.306C428.177 227.313 428.367 227.26 428.528 227.155C428.69 227.049 428.815 226.897 428.887 226.718C428.959 226.539 428.973 226.343 428.929 226.155L418.865 184.746L399.219 190.928Z" fill="#8B0303"/>
<g opacity="0.3">
<path d="M378.453 184.746L362.521 221.732C362.445 221.904 362.423 222.095 362.457 222.28C362.492 222.466 362.582 222.636 362.716 222.769C362.85 222.902 363.021 222.991 363.206 223.025C363.392 223.058 363.583 223.035 363.755 222.958L376.037 217.539C376.157 217.484 376.288 217.455 376.421 217.454C376.554 217.453 376.685 217.48 376.806 217.533C376.928 217.586 377.037 217.665 377.126 217.763C377.214 217.862 377.281 217.978 377.322 218.104L381.467 230.527C381.531 230.71 381.649 230.868 381.807 230.981C381.965 231.093 382.154 231.153 382.348 231.153C382.541 231.153 382.73 231.093 382.888 230.981C383.046 230.868 383.165 230.71 383.228 230.527L398.209 190.633L378.453 184.746Z" fill="black"/>
</g>
<g opacity="0.3">
<path d="M399.219 190.928L406.847 230.463C406.883 230.648 406.973 230.817 407.107 230.95C407.24 231.083 407.411 231.172 407.596 231.207C407.781 231.241 407.972 231.219 408.145 231.144C408.317 231.069 408.463 230.943 408.563 230.784L415.671 219.414C415.74 219.304 415.831 219.209 415.939 219.136C416.047 219.062 416.169 219.012 416.297 218.989C416.425 218.965 416.557 218.969 416.684 218.999C416.81 219.029 416.93 219.085 417.033 219.164L427.451 227.118C427.605 227.234 427.791 227.3 427.984 227.306C428.177 227.313 428.367 227.26 428.528 227.155C428.69 227.049 428.815 226.897 428.887 226.718C428.959 226.539 428.973 226.343 428.929 226.155L418.865 184.746L399.219 190.928Z" fill="black"/>
</g>
<path d="M399.989 119.943L405.22 116.103L409.333 121.117L415.355 118.704L418.087 124.584L424.526 123.737L425.702 130.112L432.148 130.889L431.705 137.36L437.752 139.71L435.715 145.867L440.985 149.654L437.482 155.111L441.647 160.08L436.885 164.497L439.687 170.346L433.98 173.44L435.233 179.803L428.935 181.382L428.562 187.853L422.071 187.821L420.098 193.997L413.819 192.354L410.368 197.843L404.7 194.691L399.989 199.153L395.285 194.691L389.616 197.843L386.165 192.354L379.887 193.997L377.914 187.821L371.423 187.853L371.05 181.382L364.752 179.803L366.005 173.44L360.298 170.346L363.094 164.497L358.338 160.08L362.502 155.111L359 149.654L364.27 145.867L362.226 139.71L368.28 137.36L367.837 130.889L374.282 130.112L375.459 123.737L381.898 124.584L384.629 118.704L390.651 121.117L394.758 116.103L399.989 119.943Z" fill="#8B0303"/>
<path d="M420.779 178.397C432.261 166.927 432.261 148.33 420.779 136.86C409.297 125.389 390.681 125.389 379.199 136.86C367.716 148.33 367.716 166.927 379.199 178.397C390.681 189.868 409.297 189.868 420.779 178.397Z" fill="white"/>
<path d="M406.403 150.669L414.288 151.824C414.58 151.867 414.855 151.99 415.081 152.18C415.306 152.37 415.474 152.62 415.565 152.901C415.656 153.181 415.667 153.482 415.596 153.768C415.524 154.055 415.374 154.315 415.162 154.521L409.449 160.074C409.264 160.252 409.126 160.473 409.047 160.717C408.967 160.961 408.949 161.221 408.993 161.474L410.336 169.338C410.385 169.628 410.352 169.927 410.241 170.199C410.13 170.472 409.944 170.708 409.706 170.881C409.467 171.054 409.185 171.157 408.891 171.178C408.597 171.199 408.302 171.138 408.041 171.001L400.972 167.284C400.746 167.163 400.493 167.1 400.236 167.1C399.98 167.1 399.727 167.163 399.5 167.284L392.431 170.982C392.17 171.117 391.876 171.178 391.582 171.155C391.288 171.133 391.007 171.03 390.769 170.856C390.531 170.682 390.346 170.446 390.236 170.173C390.125 169.9 390.093 169.602 390.143 169.312L391.499 161.467C391.543 161.215 391.525 160.956 391.446 160.712C391.368 160.468 391.232 160.247 391.049 160.068L385.342 154.501C385.13 154.296 384.98 154.034 384.909 153.748C384.839 153.461 384.85 153.16 384.941 152.879C385.033 152.598 385.202 152.349 385.428 152.159C385.655 151.969 385.93 151.846 386.223 151.805L394.115 150.669C394.368 150.634 394.61 150.537 394.817 150.387C395.024 150.237 395.191 150.038 395.304 149.808L398.845 142.669C398.976 142.405 399.178 142.183 399.428 142.028C399.678 141.873 399.967 141.79 400.262 141.79C400.557 141.79 400.846 141.873 401.096 142.028C401.346 142.183 401.548 142.405 401.679 142.669L405.194 149.821C405.311 150.05 405.482 150.247 405.693 150.395C405.904 150.543 406.147 150.637 406.403 150.669Z" fill="#8B0303"/>
<path d="M514.218 180.958C514.218 180.958 506.557 212.307 472.258 205.123C472.258 205.123 482.2 173.376 514.218 180.958Z" fill="#263238"/>
<path d="M497.662 228.434C497.662 228.434 481.917 251.886 455.889 235.669C455.889 235.669 473.626 212.577 497.662 228.434Z" fill="#263238"/>
<path d="M472.559 264.213C472.559 264.213 449.59 283.723 427.572 259.539C427.611 259.539 452.501 240.972 472.559 264.213Z" fill="#263238"/>
<path d="M448.235 188.36C448.235 188.36 473.71 200.591 461.345 228.62C461.345 228.62 435.966 214.368 448.235 188.36Z" fill="#263238"/>
<path d="M442.708 222.155C442.708 222.155 455.413 239.29 436.474 254.011C436.474 254.011 424.578 235.528 442.708 222.155Z" fill="#263238"/>
<path d="M501.633 144.3C501.633 144.3 504.557 169.71 477.083 173.781C477.096 173.781 475.74 147.446 501.633 144.3Z" fill="#263238"/>
<path d="M462.231 118.62C462.231 118.62 484.448 127.89 474.802 153.93C474.802 153.879 452.533 142.772 462.231 118.62Z" fill="#263238"/>
<path d="M448.819 155.715C448.819 155.715 478.24 159.066 475.65 191.057C475.65 191.057 445.605 185.677 448.819 155.715Z" fill="#263238"/>
<path d="M406.949 267.378C406.949 267.378 407.071 267.333 407.322 267.262L408.421 266.973C409.391 266.717 410.825 266.376 412.637 265.786C417.758 264.202 422.709 262.116 427.418 259.558C434.409 255.742 440.862 251.017 446.608 245.505C450.006 242.263 453.174 238.787 456.088 235.104L458.298 232.138L459.41 230.643C459.77 230.129 460.098 229.596 460.451 229.07L462.527 225.86L464.455 222.508C464.77 221.943 465.098 221.385 465.406 220.826C465.715 220.268 465.978 219.671 466.261 219.099C466.826 217.95 467.398 216.82 467.945 215.678C468.491 214.535 468.922 213.366 469.41 212.224C469.648 211.652 469.905 211.087 470.123 210.516L470.766 208.782L471.994 205.367C472.334 204.218 472.636 203.075 473.003 201.952C473.17 201.387 473.337 200.828 473.497 200.27C473.658 199.711 473.774 199.146 473.915 198.588L474.693 195.275C476.372 187.495 477.108 179.541 476.884 171.585C476.708 166.224 476.111 160.886 475.098 155.618C474.693 153.757 474.339 152.325 474.127 151.349C474.018 150.868 473.934 150.502 473.877 150.238C473.819 149.975 473.806 149.86 473.806 149.86C473.806 149.86 473.844 149.982 473.909 150.232L474.191 151.336C474.429 152.306 474.834 153.737 475.226 155.593C477.907 168.714 477.828 182.249 474.995 195.339C474.738 196.43 474.479 197.539 474.217 198.665C474.082 199.223 473.973 199.794 473.806 200.353C473.639 200.912 473.478 201.477 473.311 202.041L472.302 205.463L471.075 208.892C470.869 209.469 470.663 210.047 470.432 210.631C470.2 211.216 469.956 211.774 469.712 212.352L468.247 215.819C467.7 216.962 467.122 218.098 466.563 219.247L465.702 220.98C465.387 221.545 465.059 222.104 464.744 222.669L462.816 226.033L460.728 229.243C460.374 229.769 460.046 230.302 459.68 230.816L458.562 232.325L456.345 235.297C453.43 238.995 450.258 242.484 446.852 245.736C441.082 251.254 434.597 255.977 427.572 259.777C422.831 262.321 417.845 264.38 412.688 265.92C410.87 266.492 409.423 266.813 408.447 267.044L407.341 267.307L406.949 267.378Z" fill="#263238"/>
<path d="M439.951 235.971C439.985 236.21 439.985 236.452 439.951 236.69C439.912 237.146 439.842 237.814 439.745 238.616C439.546 240.253 439.205 242.507 438.723 244.978C438.241 247.45 437.702 249.671 437.271 251.257C437.052 252.053 436.873 252.695 436.731 253.138C436.676 253.372 436.591 253.599 436.48 253.812C436.497 253.573 436.537 253.337 436.603 253.106C436.725 252.586 436.872 251.951 437.04 251.18C437.412 249.582 437.914 247.36 438.396 244.895C438.878 242.43 439.25 240.189 439.507 238.565C439.63 237.807 439.739 237.165 439.822 236.639C439.842 236.413 439.886 236.189 439.951 235.971Z" fill="#455A64"/>
<path d="M446.211 261.42C445.969 261.43 445.727 261.409 445.491 261.356L443.563 261.067C441.918 260.823 439.636 260.502 437.137 260.207C434.637 259.911 432.323 259.7 430.665 259.565L428.698 259.391C428.455 259.383 428.214 259.348 427.979 259.289C428.22 259.257 428.464 259.257 428.705 259.289C429.174 259.289 429.849 259.289 430.678 259.353C432.349 259.436 434.643 259.61 437.175 259.905C439.707 260.2 441.982 260.547 443.602 260.868C444.424 261.022 445.08 261.157 445.53 261.26C445.763 261.284 445.991 261.338 446.211 261.42Z" fill="#455A64"/>
<path d="M477.174 230.328C476.898 230.424 476.614 230.493 476.325 230.533L473.999 230.989C472.032 231.381 469.327 231.946 466.357 232.658C463.388 233.371 460.721 234.116 458.793 234.668L456.512 235.31C456.239 235.406 455.957 235.474 455.67 235.515C455.923 235.372 456.193 235.26 456.473 235.182C457 234.989 457.759 234.732 458.729 234.424C460.657 233.814 463.298 233.037 466.274 232.318C469.249 231.599 471.974 231.066 473.986 230.739C474.976 230.572 475.779 230.456 476.338 230.386C476.614 230.338 476.894 230.319 477.174 230.328Z" fill="#455A64"/>
<path d="M454.688 206.285C454.886 206.526 455.061 206.786 455.208 207.062C455.536 207.576 455.966 208.346 456.461 209.29C459.039 214.314 460.615 219.792 461.101 225.417C461.191 226.489 461.23 227.343 461.23 227.985C461.26 228.296 461.26 228.61 461.23 228.922C461.166 228.616 461.131 228.304 461.127 227.991C461.095 227.394 461.018 226.527 460.896 225.455C460.288 219.881 458.727 214.452 456.281 209.405C455.812 208.436 455.42 207.665 455.131 207.133C454.956 206.865 454.808 206.581 454.688 206.285Z" fill="#455A64"/>
<path d="M488.813 191.667C488.605 191.847 488.379 192.006 488.139 192.142L486.249 193.368C484.668 194.421 482.522 195.936 480.272 197.746C478.023 199.557 476.095 201.355 474.739 202.683L473.145 204.276C472.963 204.482 472.761 204.669 472.541 204.834C472.689 204.604 472.859 204.389 473.049 204.192C473.396 203.788 473.916 203.216 474.572 202.529C476.294 200.739 478.128 199.058 480.06 197.496C481.99 195.933 484.014 194.49 486.121 193.175C486.937 192.675 487.599 192.289 488.049 192.033C488.288 191.88 488.544 191.757 488.813 191.667Z" fill="#455A64"/>
<path d="M456.686 168.458C456.774 168.511 456.856 168.574 456.93 168.645L457.573 169.222C458.132 169.73 458.929 170.506 459.886 171.424C461.814 173.312 464.385 176.002 467.059 179.128C469.732 182.255 471.981 185.227 473.543 187.423C474.321 188.521 474.938 189.42 475.349 190.049L475.818 190.781C475.921 190.954 475.972 191.044 475.96 191.05C475.883 190.983 475.816 190.905 475.76 190.819L475.24 190.126L473.35 187.558C471.744 185.401 469.494 182.46 466.802 179.34C464.109 176.22 461.596 173.505 459.732 171.579L457.483 169.338L456.879 168.696C456.744 168.548 456.68 168.471 456.686 168.458Z" fill="#455A64"/>
<path d="M492.122 152.556C491.931 152.839 491.716 153.106 491.48 153.352L489.693 155.458C488.196 157.243 486.184 159.753 484.115 162.642C482.045 165.531 480.323 168.247 479.115 170.243L477.74 172.606C477.583 172.906 477.401 173.192 477.193 173.46C477.313 173.143 477.457 172.836 477.624 172.542C477.92 171.964 478.376 171.136 478.954 170.121C480.111 168.093 481.814 165.351 483.89 162.449C485.966 159.548 488.016 157.05 489.558 155.304C490.329 154.424 490.972 153.731 491.428 153.262C491.639 153.008 491.872 152.772 492.122 152.556Z" fill="#455A64"/>
<path d="M465.529 128.43C465.705 128.731 465.859 129.045 465.992 129.367C466.268 129.971 466.635 130.857 467.123 131.935C468.055 134.131 469.289 137.199 470.555 140.621C471.821 144.043 472.881 147.17 473.608 149.449C473.974 150.585 474.25 151.51 474.443 152.152C474.555 152.48 474.641 152.817 474.7 153.16C474.542 152.849 474.413 152.525 474.315 152.19L473.383 149.519C472.605 147.266 471.506 144.152 470.24 140.737C468.974 137.321 467.779 134.246 466.905 132.025C466.48 130.953 466.133 130.099 465.87 129.386C465.724 129.08 465.61 128.759 465.529 128.43Z" fill="#455A64"/>
<path d="M129.414 173.98C129.414 173.98 136.657 203.602 169.067 196.816C169.047 196.816 159.652 166.815 129.414 173.98Z" fill="#263238"/>
<path d="M145.057 218.843C145.057 218.843 159.934 241.004 184.516 225.68C184.516 225.68 167.756 203.858 145.057 218.843Z" fill="#263238"/>
<path d="M168.758 252.65C168.758 252.65 190.467 271.095 211.257 248.24C211.257 248.24 187.716 230.688 168.758 252.65Z" fill="#263238"/>
<path d="M191.752 180.977C191.752 180.977 167.678 192.533 179.362 219.016C179.355 219.016 203.365 205.553 191.752 180.977Z" fill="#263238"/>
<path d="M196.971 212.911C196.971 212.911 184.966 229.102 202.858 243.014C202.858 243.014 214.104 225.552 196.971 212.911Z" fill="#263238"/>
<path d="M141.29 139.337C141.29 139.337 138.527 163.348 164.49 167.194C164.49 167.194 165.75 142.31 141.29 139.337Z" fill="#263238"/>
<path d="M178.527 115.038C178.527 115.038 157.525 123.801 166.645 148.422C166.645 148.39 187.685 137.88 178.527 115.038Z" fill="#263238"/>
<path d="M191.2 150.123C191.2 150.123 163.392 153.294 165.84 183.507C165.84 183.52 194.24 178.442 191.2 150.123Z" fill="#263238"/>
<path d="M236.861 257.696L236.482 257.626L235.383 257.382C234.419 257.157 232.992 256.855 231.186 256.323C226.07 254.899 221.088 253.032 216.296 250.744C212.978 249.177 209.759 247.411 206.656 245.454C203.085 243.224 199.676 240.744 196.457 238.032C192.888 235.045 189.555 231.786 186.489 228.286L184.15 225.468C183.391 224.499 182.672 223.491 181.92 222.496C181.547 221.995 181.174 221.488 180.795 220.987L179.76 219.414C179.079 218.348 178.353 217.295 177.691 216.204C176.406 213.97 175.12 211.8 174.06 209.527C172.903 207.312 171.99 205.033 171.039 202.799C164.333 186.143 162.648 167.89 166.194 150.29C166.579 148.454 166.971 147.048 167.196 146.085C167.318 145.616 167.408 145.25 167.472 144.993C167.537 144.737 167.582 144.627 167.582 144.627C167.582 144.627 167.582 144.756 167.505 145.006C167.427 145.257 167.37 145.648 167.26 146.098C167.055 147.067 166.682 148.479 166.316 150.316C165.335 155.518 164.778 160.791 164.651 166.083C164.466 178.601 166.741 191.034 171.348 202.677C172.292 204.892 173.205 207.171 174.362 209.38C175.409 211.639 176.72 213.803 177.974 216.031C178.616 217.122 179.355 218.169 180.037 219.241L181.071 220.82L182.19 222.322C182.935 223.317 183.655 224.325 184.407 225.288L186.74 228.094C192.568 234.745 199.325 240.523 206.804 245.248C214.386 250.036 222.608 253.73 231.225 256.22C233.018 256.772 234.438 257.093 235.402 257.337L236.488 257.619L236.861 257.696Z" fill="#263238"/>
<path d="M199.574 225.962C199.645 226.171 199.694 226.386 199.722 226.604C199.806 227.105 199.902 227.709 200.018 228.421C200.262 229.956 200.622 232.074 201.072 234.405C201.522 236.735 201.997 238.828 202.357 240.343C202.518 241.043 202.653 241.627 202.768 242.141C202.832 242.349 202.869 242.565 202.878 242.783C202.774 242.579 202.694 242.363 202.64 242.141C202.511 241.73 202.331 241.12 202.126 240.369C201.714 238.867 201.213 236.774 200.75 234.437C200.288 232.1 199.979 229.943 199.793 228.421C199.696 227.651 199.632 227.022 199.6 226.585C199.567 226.379 199.558 226.17 199.574 225.962Z" fill="#455A64"/>
<path d="M193.682 250.012C193.889 249.927 194.104 249.865 194.324 249.826C194.748 249.729 195.378 249.601 196.149 249.453C197.698 249.164 199.851 248.811 202.242 248.542C204.633 248.272 206.805 248.099 208.379 248.028C209.17 247.989 209.806 247.964 210.243 247.964C210.471 247.934 210.703 247.934 210.931 247.964C210.711 248.023 210.484 248.055 210.256 248.06L208.399 248.227C206.831 248.362 204.665 248.567 202.281 248.869C199.896 249.171 197.782 249.453 196.188 249.684L194.344 249.948C194.127 249.997 193.904 250.019 193.682 250.012Z" fill="#455A64"/>
<path d="M164.4 220.621C164.676 220.611 164.953 220.635 165.223 220.692C165.75 220.756 166.508 220.865 167.44 221.019C169.317 221.327 171.887 221.828 174.702 222.508C177.517 223.189 180.03 223.921 181.836 224.505C182.736 224.794 183.462 225.044 183.963 225.224C184.226 225.302 184.48 225.408 184.722 225.539C184.447 225.507 184.177 225.442 183.918 225.346L181.765 224.704C179.947 224.184 177.427 223.491 174.619 222.81C171.81 222.13 169.259 221.597 167.402 221.224L165.204 220.794C164.931 220.761 164.662 220.703 164.4 220.621Z" fill="#455A64"/>
<path d="M185.655 197.913C185.551 198.19 185.422 198.456 185.269 198.709C184.999 199.21 184.626 199.942 184.183 200.86C183.034 203.24 182.088 205.711 181.355 208.25C180.63 210.79 180.116 213.386 179.819 216.011C179.71 217.019 179.633 217.841 179.601 218.406C179.596 218.702 179.562 218.997 179.498 219.286C179.461 218.992 179.45 218.695 179.466 218.4C179.466 217.828 179.498 217.006 179.581 215.992C179.813 213.339 180.3 210.714 181.034 208.153C181.769 205.596 182.753 203.117 183.971 200.751C184.44 199.846 184.845 199.127 185.153 198.645C185.292 198.383 185.461 198.138 185.655 197.913Z" fill="#455A64"/>
<path d="M153.404 184.104C153.649 184.193 153.883 184.307 154.105 184.444C154.548 184.682 155.178 185.048 155.949 185.523C157.942 186.763 159.856 188.125 161.682 189.6C163.505 191.077 165.235 192.666 166.862 194.357C167.504 194.999 167.974 195.544 168.301 195.93C168.483 196.127 168.645 196.342 168.783 196.572C168.57 196.417 168.376 196.238 168.205 196.039L166.688 194.517C165.403 193.233 163.591 191.577 161.463 189.85C159.336 188.123 157.305 186.704 155.814 185.715L154.034 184.547C153.807 184.425 153.596 184.276 153.404 184.104Z" fill="#455A64"/>
<path d="M183.764 162.167C183.534 162.457 183.283 162.729 183.012 162.982L180.898 165.133C179.13 166.95 176.727 169.518 174.208 172.465C171.688 175.411 169.542 178.191 168.019 180.233L166.232 182.653C166.027 182.959 165.799 183.248 165.551 183.52C165.717 183.191 165.908 182.876 166.123 182.576C166.508 181.979 167.093 181.125 167.826 180.091C169.304 178.011 171.431 175.206 173.957 172.246C176.483 169.287 178.899 166.77 180.731 164.966C181.643 164.074 182.389 163.361 182.922 162.886C183.185 162.626 183.466 162.386 183.764 162.167Z" fill="#455A64"/>
<path d="M150.275 147.138C150.525 147.331 150.757 147.546 150.969 147.78C151.4 148.223 152.004 148.877 152.73 149.706C154.632 151.877 156.421 154.144 158.09 156.498C160.018 159.239 161.663 161.833 162.756 163.746C163.302 164.703 163.726 165.486 164.041 166.038C164.204 166.316 164.339 166.608 164.446 166.911C164.251 166.656 164.077 166.385 163.926 166.102L162.582 163.868C161.439 161.987 159.806 159.426 157.852 156.691C155.899 153.956 153.996 151.587 152.583 149.898C151.94 149.089 151.342 148.422 150.905 147.908C150.669 147.674 150.458 147.416 150.275 147.138Z" fill="#455A64"/>
<path d="M175.415 124.34C175.334 124.659 175.227 124.97 175.094 125.271C174.843 125.913 174.516 126.754 174.117 127.762C173.295 129.861 172.189 132.77 170.968 135.999C169.747 139.228 168.732 142.169 167.973 144.3C167.613 145.321 167.331 146.168 167.093 146.823C167.001 147.138 166.878 147.443 166.727 147.735C166.779 147.412 166.859 147.094 166.964 146.785C167.138 146.143 167.408 145.302 167.748 144.217C168.436 142.066 169.432 139.081 170.634 135.871C171.836 132.661 172.999 129.746 173.879 127.666C174.323 126.626 174.689 125.791 174.953 125.213C175.079 124.908 175.234 124.616 175.415 124.34Z" fill="#455A64"/>
</svg>
