<svg width="24" height="24" viewBox="0 0 24 24" fill="none" xmlns="http://www.w3.org/2000/svg">
<path d="M6.98451 16.5507C6.90205 16.5917 6.82432 16.6416 6.75268 16.6996C5.45509 17.9926 4.1593 19.2875 2.86533 20.5842C2.79103 20.6534 2.72279 20.729 2.66138 20.8099C2.5879 20.9144 2.55358 21.0415 2.56443 21.1688C2.57528 21.2961 2.63062 21.4156 2.72073 21.5062C2.81084 21.5968 2.92998 21.6527 3.05724 21.6643C3.1845 21.6758 3.31175 21.6422 3.41669 21.5693C3.49761 21.5079 3.57312 21.4396 3.6424 21.3653C4.93818 20.0704 6.23283 18.7744 7.52634 17.4773C7.58429 17.4058 7.63443 17.3283 7.6759 17.2461C11.4674 20.5026 16.7069 19.6086 19.4032 16.3012C22.0342 13.0746 21.8003 8.27901 18.8328 5.36045C15.8238 2.39837 11.0269 2.21278 7.8683 4.86756C4.56971 7.6386 3.78721 12.8217 6.98451 16.5507ZM13.0847 18.1891C11.6895 18.1883 10.3259 17.7737 9.16639 16.9977C8.00687 16.2217 7.10355 15.1193 6.57071 13.8298C6.03788 12.5404 5.89947 11.1219 6.173 9.75373C6.44652 8.3856 7.1197 7.12933 8.10735 6.14386C9.09501 5.15839 10.3528 4.48801 11.7215 4.21752C13.0902 3.94702 14.5085 4.08858 15.7967 4.62427C17.085 5.15997 18.1854 6.06573 18.9588 7.22697C19.7322 8.38821 20.1438 9.75275 20.1415 11.148C20.1422 12.0741 19.9601 12.9913 19.6055 13.8469C19.2509 14.7026 18.7309 15.4797 18.0753 16.1339C17.4197 16.7881 16.6413 17.3064 15.7849 17.6591C14.9285 18.0117 14.0109 18.1919 13.0847 18.1891Z" fill="#8B0303"/>
</svg>
